# xmcd
#
# Track frame offsets:
# 150
# 16819
# 31575
# 52624
# 72130
# 92422
# 107977
# 131256
# 154629
# 171121
# 187685
# 201745
# 207694
#
# Disc length: 3028 seconds
#
#
# Revision: 2
# Processed by: cddbd v1.5.2PL0 Copyright (c) Steve Scherf et al.
# Submitted via: FreeRIP 2.951 
#
DISCID=9f0bd20d
DTITLE=Fábio Júnior - Minhas canções
DYEAR=2007
DGENRE=Pop
TTITLE0=A cúmplice
TTITLE1=Juventude transviada
TTITLE2=Dois rios
TTITLE3=Codinome Beija-Flor
TTITLE4=Sozinho
TTITLE5=Tente outra vez
TTITLE6=Sem limites pra sonhar
TTITLE7=Sangrando
TTITLE8=Não vou ficar
TTITLE9=Por você
TTITLE10=Epitáfio
TTITLE11=Texto de Luiz Antonio Gasparetto
TTITLE12=Se eu não te amasse tanto assim
EXTD=
EXTT0=
EXTT1=
EXTT2=
EXTT3=
EXTT4=
EXTT5=
EXTT6=
EXTT7=
EXTT8=
EXTT9=
EXTT10=
EXTT11=
EXTT12=
PLAYORDER=
